# xmcd
#
# Track frame offsets: 
#        150
#        15330
#        41644
#        56449
#        73509
#        94288
#        113252
#        128894
#        150888
#        169370
#        185444
#        202049
#
# Disc length: 2923 seconds
#
# Revision: 1
# Processed by: cddbd v1.5.2PL0 Copyright (c) Steve Scherf et al.
# Submitted via: ExactAudioCopy v0.99pb5
#
DISCID=950b690c
DTITLE=Pearl Django - Systeme D
DYEAR=2010
DGENRE=Modern Hot Records
TTITLE0=Tune Up
TTITLE1=Spiral Waltz
TTITLE2=Systeme D Swing
TTITLE3=Crooked Heart
TTITLE4=Recado Bossa Nova
TTITLE5=Nostalgie de Paris
TTITLE6=Waiting For Spring
TTITLE7=Roma
TTITLE8=Darn That Dream
TTITLE9=Ain't Misbehavin'
TTITLE10=The Magpie
TTITLE11=Porto Cabello
EXTD=YEAR: 2010
EXTT0=
EXTT1=
EXTT2=
EXTT3=
EXTT4=
EXTT5=
EXTT6=
EXTT7=
EXTT8=
EXTT9=
EXTT10=
EXTT11=
PLAYORDER=
